<svg width="124" height="28" viewBox="0 0 124 28" fill="none" xmlns="http://www.w3.org/2000/svg">
<path d="M0.5 14C0.5 11.1807 0.500604 9.10381 0.665963 7.4783C0.830472 5.86115 1.1539 4.74627 1.76398 3.83322C2.31117 3.0143 3.0143 2.31117 3.83322 1.76398C4.74627 1.1539 5.86115 0.830472 7.4783 0.665963C9.10381 0.500604 11.1807 0.5 14 0.5C16.8193 0.5 18.8962 0.500604 20.5217 0.665963C22.1389 0.830472 23.2537 1.1539 24.1668 1.76398C24.9857 2.31117 25.6888 3.0143 26.236 3.83322C26.8461 4.74627 27.1695 5.86115 27.334 7.4783C27.4994 9.10381 27.5 11.1807 27.5 14C27.5 16.8193 27.4994 18.8962 27.334 20.5217C27.1695 22.1389 26.8461 23.2537 26.236 24.1668C25.6888 24.9857 24.9857 25.6888 24.1668 26.236C23.2537 26.8461 22.1389 27.1695 20.5217 27.334C18.8962 27.4994 16.8193 27.5 14 27.5C11.1807 27.5 9.10381 27.4994 7.4783 27.334C5.86115 27.1695 4.74627 26.8461 3.83322 26.236C3.0143 25.6888 2.31117 24.9857 1.76398 24.1668C1.1539 23.2537 0.830472 22.1389 0.665963 20.5217C0.500604 18.8962 0.5 16.8193 0.5 14Z" fill="#6849D7"/>
<path d="M17.4144 10.3438C17.3349 9.59943 16.9996 9.01989 16.4087 8.60511C15.8235 8.19034 15.0621 7.98295 14.1246 7.98295C13.4656 7.98295 12.9002 8.08239 12.4286 8.28125C11.957 8.48011 11.5962 8.75 11.3462 9.09091C11.0962 9.43182 10.9684 9.82102 10.9627 10.2585C10.9627 10.6222 11.0451 10.9375 11.2099 11.2045C11.3803 11.4716 11.6104 11.6989 11.9002 11.8864C12.19 12.0682 12.511 12.2216 12.8633 12.3466C13.2156 12.4716 13.5707 12.5767 13.9286 12.6619L15.565 13.071C16.2241 13.2244 16.8576 13.4318 17.4656 13.6932C18.0792 13.9545 18.6275 14.2841 19.1104 14.6818C19.5991 15.0795 19.9854 15.5597 20.2695 16.1222C20.5536 16.6847 20.6957 17.3437 20.6957 18.0994C20.6957 19.1222 20.4343 20.0227 19.9116 20.8011C19.3889 21.5739 18.6332 22.179 17.6445 22.6165C16.6616 23.0483 15.4712 23.2642 14.0735 23.2642C12.7156 23.2642 11.5366 23.054 10.5366 22.6335C9.54226 22.2131 8.76385 21.5994 8.20135 20.7926C7.64453 19.9858 7.34339 19.0028 7.29794 17.8438H10.4087C10.4542 18.4517 10.6417 18.9574 10.9712 19.3608C11.3008 19.7642 11.7298 20.0653 12.2582 20.2642C12.7923 20.4631 13.3888 20.5625 14.0479 20.5625C14.7354 20.5625 15.3377 20.4602 15.8548 20.2557C16.3775 20.0455 16.7866 19.7557 17.082 19.3864C17.3775 19.0114 17.5281 18.5739 17.5337 18.0739C17.5281 17.6193 17.3945 17.2443 17.1332 16.9489C16.8718 16.6477 16.5053 16.3977 16.0337 16.1989C15.5678 15.9943 15.0224 15.8125 14.3974 15.6534L12.4116 15.142C10.9741 14.7727 9.83771 14.2131 9.00249 13.4631C8.17294 12.7074 7.75817 11.7045 7.75817 10.4545C7.75817 9.42614 8.03658 8.52557 8.59339 7.75284C9.1559 6.98011 9.9201 6.38068 10.886 5.95454C11.8519 5.52273 12.9457 5.30682 14.1673 5.30682C15.4059 5.30682 16.4911 5.52273 17.4229 5.95454C18.3604 6.38068 19.0962 6.97443 19.6303 7.73579C20.1644 8.49148 20.44 9.3608 20.457 10.3438H17.4144Z" fill="white"/>
<text x="34" y="19" font-family="Arial, sans-serif" font-size="16" font-weight="bold" fill="white">StrataVision</text>
</svg>
