<svg width="124" height="28" viewBox="0 0 124 28" fill="none" xmlns="http://www.w3.org/2000/svg">
<path d="M0.5 14C0.5 11.1807 0.500604 9.10381 0.665963 7.4783C0.830472 5.86115 1.1539 4.74627 1.76398 3.83322C2.31117 3.0143 3.0143 2.31117 3.83322 1.76398C4.74627 1.1539 5.86115 0.830472 7.4783 0.665963C9.10381 0.500604 11.1807 0.5 14 0.5C16.8193 0.5 18.8962 0.500604 20.5217 0.665963C22.1389 0.830472 23.2537 1.1539 24.1668 1.76398C24.9857 2.31117 25.6888 3.0143 26.236 3.83322C26.8461 4.74627 27.1695 5.86115 27.334 7.4783C27.4994 9.10381 27.5 11.1807 27.5 14C27.5 16.8193 27.4994 18.8962 27.334 20.5217C27.1695 22.1389 26.8461 23.2537 26.236 24.1668C25.6888 24.9857 24.9857 25.6888 24.1668 26.236C23.2537 26.8461 22.1389 27.1695 20.5217 27.334C18.8962 27.4994 16.8193 27.5 14 27.5C11.1807 27.5 9.10381 27.4994 7.4783 27.334C5.86115 27.1695 4.74627 26.8461 3.83322 26.236C3.0143 25.6888 2.31117 24.9857 1.76398 24.1668C1.1539 23.2537 0.830472 22.1389 0.665963 20.5217C0.500604 18.8962 0.5 16.8193 0.5 14Z" fill="#6849D7"/>
<path d="M17.4144 10.3438C17.3349 9.59943 16.9996 9.01989 16.4087 8.60511C15.8235 8.19034 15.0621 7.98295 14.1246 7.98295C13.4656 7.98295 12.9002 8.08239 12.4286 8.28125C11.957 8.48011 11.5962 8.75 11.3462 9.09091C11.0962 9.43182 10.9684 9.82102 10.9627 10.2585C10.9627 10.6222 11.0451 10.9375 11.2099 11.2045C11.3803 11.4716 11.6104 11.6989 11.9002 11.8864C12.19 12.0682 12.511 12.2216 12.8633 12.3466C13.2156 12.4716 13.5707 12.5767 13.9286 12.6619L15.565 13.071C16.2241 13.2244 16.8576 13.4318 17.4656 13.6932C18.0792 13.9545 18.6275 14.2841 19.1104 14.6818C19.5991 15.0795 19.9854 15.5597 20.2695 16.1222C20.5536 16.6847 20.6957 17.3437 20.6957 18.0994C20.6957 19.1222 20.4343 20.0227 19.9116 20.8011C19.3889 21.5739 18.6332 22.179 17.6445 22.6165C16.6616 23.0483 15.4712 23.2642 14.0735 23.2642C12.7156 23.2642 11.5366 23.054 10.5366 22.6335C9.54226 22.2131 8.76385 21.5994 8.20135 20.7926C7.64453 19.9858 7.34339 19.0028 7.29794 17.8438H10.4087C10.4542 18.4517 10.6417 18.9574 10.9712 19.3608C11.3008 19.7642 11.7298 20.0653 12.2582 20.2642C12.7923 20.4631 13.3888 20.5625 14.0479 20.5625C14.7354 20.5625 15.3377 20.4602 15.8548 20.2557C16.3775 20.0455 16.7866 19.7557 17.082 19.3864C17.3775 19.0114 17.5281 18.5739 17.5337 18.0739C17.5281 17.6193 17.3945 17.2443 17.1332 16.9489C16.8718 16.6477 16.5053 16.3977 16.0337 16.1989C15.5678 15.9943 15.0224 15.8125 14.3974 15.6534L12.4116 15.142C10.9741 14.7727 9.83771 14.2131 9.00249 13.4631C8.17294 12.7074 7.75817 11.7045 7.75817 10.4545C7.75817 9.42614 8.03658 8.52557 8.59339 7.75284C9.1559 6.98011 9.9201 6.38068 10.886 5.95454C11.8519 5.52273 12.9457 5.30682 14.1673 5.30682C15.4059 5.30682 16.4911 5.52273 17.4229 5.95454C18.3604 6.38068 19.0962 6.97443 19.6303 7.73579C20.1644 8.49148 20.44 9.3608 20.457 10.3438H17.4144Z" fill="white"/>
<path d="M41.8694 11.5625C41.8164 11.0663 41.5929 10.6799 41.1989 10.4034C40.8088 10.1269 40.3012 9.98864 39.6762 9.98864C39.2368 9.98864 38.8599 10.0549 38.5455 10.1875C38.2311 10.3201 37.9906 10.5 37.8239 10.7273C37.6573 10.9545 37.5721 11.214 37.5683 11.5057C37.5683 11.7481 37.6232 11.9583 37.733 12.1364C37.8467 12.3144 38.0001 12.4659 38.1933 12.5909C38.3864 12.7121 38.6005 12.8144 38.8353 12.8977C39.0702 12.9811 39.3069 13.0511 39.5455 13.108L40.6364 13.3807C41.0758 13.483 41.4982 13.6212 41.9035 13.7955C42.3126 13.9697 42.6781 14.1894 43.0001 14.4545C43.3258 14.7197 43.5834 15.0398 43.7728 15.4148C43.9622 15.7898 44.0569 16.2292 44.0569 16.733C44.0569 17.4148 43.8827 18.0152 43.5342 18.5341C43.1857 19.0492 42.6819 19.4527 42.0228 19.7443C41.3675 20.0322 40.5739 20.1761 39.6421 20.1761C38.7368 20.1761 37.9508 20.036 37.2842 19.7557C36.6213 19.4754 36.1024 19.0663 35.7274 18.5284C35.3561 17.9905 35.1554 17.3352 35.1251 16.5625H37.1989C37.2293 16.9678 37.3543 17.3049 37.5739 17.5739C37.7936 17.8428 38.0796 18.0436 38.4319 18.1761C38.788 18.3087 39.1857 18.375 39.6251 18.375C40.0834 18.375 40.4849 18.3068 40.8296 18.1705C41.1781 18.0303 41.4508 17.8371 41.6478 17.5909C41.8448 17.3409 41.9452 17.0492 41.9489 16.7159C41.9452 16.4129 41.8561 16.1629 41.6819 15.9659C41.5077 15.7652 41.2633 15.5985 40.9489 15.4659C40.6383 15.3295 40.2747 15.2083 39.858 15.1023L38.5342 14.7614C37.5758 14.5152 36.8183 14.142 36.2614 13.642C35.7084 13.1383 35.4319 12.4697 35.4319 11.6364C35.4319 10.9508 35.6175 10.3504 35.9887 9.83523C36.3637 9.32008 36.8732 8.92045 37.5171 8.63636C38.1611 8.34848 38.8902 8.20455 39.7046 8.20455C40.5304 8.20455 41.2539 8.34848 41.8751 8.63636C42.5001 8.92045 42.9906 9.31629 43.3467 9.82386C43.7027 10.3277 43.8864 10.9072 43.8978 11.5625H41.8694ZM49.7232 11.2727V12.8636H44.7062V11.2727H49.7232ZM45.9448 9.18182H48.0016V17.375C48.0016 17.6515 48.0433 17.8636 48.1266 18.0114C48.2137 18.1553 48.3274 18.2538 48.4675 18.3068C48.6077 18.3598 48.763 18.3864 48.9334 18.3864C49.0622 18.3864 49.1796 18.3769 49.2857 18.358C49.3956 18.339 49.4789 18.322 49.5357 18.3068L49.8823 19.9148C49.7725 19.9527 49.6153 19.9943 49.4107 20.0398C49.21 20.0852 48.9637 20.1117 48.6721 20.1193C48.1569 20.1345 47.6929 20.0568 47.28 19.8864C46.8671 19.7121 46.5395 19.4432 46.2971 19.0795C46.0584 18.7159 45.941 18.2614 45.9448 17.7159V9.18182ZM50.9634 20V11.2727H52.9577V12.7273H53.0486C53.2077 12.2235 53.4804 11.8352 53.8668 11.5625C54.2569 11.286 54.702 11.1477 55.202 11.1477C55.3157 11.1477 55.4425 11.1534 55.5827 11.1648C55.7266 11.1723 55.846 11.1856 55.9407 11.2045V13.0966C55.8535 13.0663 55.7153 13.0398 55.5259 13.017C55.3403 12.9905 55.1604 12.9773 54.9861 12.9773C54.6111 12.9773 54.274 13.0587 53.9747 13.2216C53.6793 13.3807 53.4463 13.6023 53.2759 13.8864C53.1054 14.1705 53.0202 14.4981 53.0202 14.8693V20H50.9634ZM59.1822 20.1761C58.6292 20.1761 58.1311 20.0777 57.6879 19.8807C57.2485 19.6799 56.9 19.3845 56.6425 18.9943C56.3887 18.6042 56.2618 18.1231 56.2618 17.5511C56.2618 17.0587 56.3527 16.6515 56.5345 16.3295C56.7163 16.0076 56.9644 15.75 57.2788 15.5568C57.5932 15.3636 57.9474 15.2178 58.3413 15.1193C58.7391 15.017 59.15 14.9432 59.5743 14.8977C60.0857 14.8447 60.5004 14.7973 60.8186 14.7557C61.1368 14.7102 61.3678 14.642 61.5118 14.5511C61.6595 14.4564 61.7334 14.3106 61.7334 14.1136V14.0795C61.7334 13.6515 61.6065 13.3201 61.3527 13.0852C61.0989 12.8504 60.7334 12.733 60.2561 12.733C59.7523 12.733 59.3527 12.8428 59.0572 13.0625C58.7656 13.2822 58.5686 13.5417 58.4663 13.8409L56.5459 13.5682C56.6974 13.0379 56.9474 12.5947 57.2959 12.2386C57.6444 11.8788 58.0705 11.6098 58.5743 11.4318C59.0781 11.25 59.6349 11.1591 60.2447 11.1591C60.6652 11.1591 61.0838 11.2083 61.5004 11.3068C61.9171 11.4053 62.2978 11.5682 62.6425 11.7955C62.9872 12.0189 63.2637 12.3239 63.472 12.7102C63.6841 13.0966 63.7902 13.5795 63.7902 14.1591V20H61.8129V18.8011H61.7447C61.6197 19.0436 61.4436 19.2708 61.2163 19.483C60.9928 19.6913 60.7107 19.8598 60.3697 19.9886C60.0326 20.1136 59.6368 20.1761 59.1822 20.1761ZM59.7163 18.6648C60.1292 18.6648 60.4872 18.5833 60.7902 18.4205C61.0932 18.2538 61.3262 18.0341 61.4891 17.7614C61.6557 17.4886 61.7391 17.1913 61.7391 16.8693V15.8409C61.6747 15.8939 61.5648 15.9432 61.4095 15.9886C61.258 16.0341 61.0875 16.0739 60.8982 16.108C60.7088 16.142 60.5213 16.1723 60.3357 16.1989C60.15 16.2254 59.9891 16.2481 59.8527 16.267C59.5459 16.3087 59.2713 16.3769 59.0288 16.4716C58.7864 16.5663 58.5951 16.6989 58.455 16.8693C58.3148 17.036 58.2447 17.2519 58.2447 17.517C58.2447 17.8958 58.383 18.1818 58.6595 18.375C58.936 18.5682 59.2883 18.6648 59.7163 18.6648ZM69.7363 11.2727V12.8636H64.7193V11.2727H69.7363ZM65.9579 9.18182H68.0147V17.375C68.0147 17.6515 68.0564 17.8636 68.1397 18.0114C68.2269 18.1553 68.3405 18.2538 68.4807 18.3068C68.6208 18.3598 68.7761 18.3864 68.9466 18.3864C69.0753 18.3864 69.1928 18.3769 69.2988 18.358C69.4087 18.339 69.492 18.322 69.5488 18.3068L69.8954 19.9148C69.7856 19.9527 69.6284 19.9943 69.4238 20.0398C69.2231 20.0852 68.9769 20.1117 68.6852 20.1193C68.17 20.1345 67.706 20.0568 67.2932 19.8864C66.8803 19.7121 66.5526 19.4432 66.3102 19.0795C66.0716 18.7159 65.9541 18.2614 65.9579 17.7159V9.18182ZM73.4879 20.1761C72.9348 20.1761 72.4367 20.0777 71.9935 19.8807C71.5542 19.6799 71.2057 19.3845 70.9481 18.9943C70.6943 18.6042 70.5674 18.1231 70.5674 17.5511C70.5674 17.0587 70.6583 16.6515 70.8401 16.3295C71.022 16.0076 71.2701 15.75 71.5845 15.5568C71.8989 15.3636 72.253 15.2178 72.647 15.1193C73.0447 15.017 73.4557 14.9432 73.8799 14.8977C74.3913 14.8447 74.806 14.7973 75.1242 14.7557C75.4424 14.7102 75.6735 14.642 75.8174 14.5511C75.9651 14.4564 76.039 14.3106 76.039 14.1136V14.0795C76.039 13.6515 75.9121 13.3201 75.6583 13.0852C75.4045 12.8504 75.039 12.733 74.5617 12.733C74.0579 12.733 73.6583 12.8428 73.3629 13.0625C73.0712 13.2822 72.8742 13.5417 72.772 13.8409L70.8515 13.5682C71.003 13.0379 71.253 12.5947 71.6015 12.2386C71.95 11.8788 72.3761 11.6098 72.8799 11.4318C73.3837 11.25 73.9405 11.1591 74.5504 11.1591C74.9708 11.1591 75.3894 11.2083 75.806 11.3068C76.2227 11.4053 76.6034 11.5682 76.9481 11.7955C77.2928 12.0189 77.5693 12.3239 77.7776 12.7102C77.9898 13.0966 78.0958 13.5795 78.0958 14.1591V20H76.1185V18.8011H76.0504C75.9254 19.0436 75.7492 19.2708 75.522 19.483C75.2985 19.6913 75.0163 19.8598 74.6754 19.9886C74.3382 20.1136 73.9424 20.1761 73.4879 20.1761ZM74.022 18.6648C74.4348 18.6648 74.7928 18.5833 75.0958 18.4205C75.3989 18.2538 75.6318 18.0341 75.7947 17.7614C75.9614 17.4886 76.0447 17.1913 76.0447 16.8693V15.8409C75.9803 15.8939 75.8704 15.9432 75.7151 15.9886C75.5636 16.0341 75.3932 16.0739 75.2038 16.108C75.0144 16.142 74.8269 16.1723 74.6413 16.1989C74.4557 16.2254 74.2947 16.2481 74.1583 16.267C73.8515 16.3087 73.5769 16.3769 73.3345 16.4716C73.092 16.5663 72.9007 16.6989 72.7606 16.8693C72.6204 17.036 72.5504 17.2519 72.5504 17.517C72.5504 17.8958 72.6886 18.1818 72.9651 18.375C73.2417 18.5682 73.5939 18.6648 74.022 18.6648ZM80.5192 8.36364L83.5476 17.5227H83.667L86.6897 8.36364H89.0079L84.9056 20H82.3033L78.2067 8.36364H80.5192ZM89.9696 20V11.2727H92.0264V20H89.9696ZM91.0037 10.0341C90.678 10.0341 90.3977 9.92614 90.1628 9.71023C89.928 9.49053 89.8105 9.22727 89.8105 8.92045C89.8105 8.60985 89.928 8.34659 90.1628 8.13068C90.3977 7.91098 90.678 7.80114 91.0037 7.80114C91.3333 7.80114 91.6136 7.91098 91.8446 8.13068C92.0795 8.34659 92.1969 8.60985 92.1969 8.92045C92.1969 9.22727 92.0795 9.49053 91.8446 9.71023C91.6136 9.92614 91.3333 10.0341 91.0037 10.0341ZM100.559 13.5795L98.6842 13.7841C98.6312 13.5947 98.5384 13.4167 98.4058 13.25C98.277 13.0833 98.1028 12.9489 97.8831 12.8466C97.6634 12.7443 97.3945 12.6932 97.0763 12.6932C96.6482 12.6932 96.2884 12.786 95.9967 12.9716C95.7089 13.1572 95.5668 13.3977 95.5706 13.6932C95.5668 13.947 95.6596 14.1534 95.849 14.3125C96.0422 14.4716 96.3604 14.6023 96.8036 14.7045L98.2922 15.0227C99.1179 15.2008 99.7316 15.483 100.133 15.8693C100.538 16.2557 100.743 16.7614 100.747 17.3864C100.743 17.9356 100.582 18.4205 100.264 18.8409C99.9494 19.2576 99.5119 19.5833 98.9513 19.8182C98.3907 20.053 97.7467 20.1705 97.0195 20.1705C95.9513 20.1705 95.0914 19.947 94.4399 19.5C93.7884 19.0492 93.4001 18.4223 93.2751 17.6193L95.2808 17.4261C95.3717 17.8201 95.5649 18.1174 95.8604 18.3182C96.1558 18.5189 96.5403 18.6193 97.0138 18.6193C97.5024 18.6193 97.8945 18.5189 98.1899 18.3182C98.4892 18.1174 98.6388 17.8693 98.6388 17.5739C98.6388 17.3239 98.5422 17.1174 98.349 16.9545C98.1596 16.7917 97.8642 16.6667 97.4626 16.5795L95.974 16.267C95.1369 16.0928 94.5176 15.7992 94.1161 15.3864C93.7145 14.9697 93.5157 14.4432 93.5195 13.8068C93.5157 13.2689 93.6615 12.803 93.957 12.4091C94.2562 12.0114 94.671 11.7045 95.2013 11.4886C95.7354 11.2689 96.3509 11.1591 97.0479 11.1591C98.0706 11.1591 98.8755 11.3769 99.4626 11.8125C100.054 12.2481 100.419 12.8371 100.559 13.5795ZM101.963 20V11.2727H104.02V20H101.963ZM102.997 10.0341C102.671 10.0341 102.391 9.92614 102.156 9.71023C101.921 9.49053 101.804 9.22727 101.804 8.92045C101.804 8.60985 101.921 8.34659 102.156 8.13068C102.391 7.91098 102.671 7.80114 102.997 7.80114C103.326 7.80114 103.607 7.91098 103.838 8.13068C104.073 8.34659 104.19 8.60985 104.19 8.92045C104.19 9.22727 104.073 9.49053 103.838 9.71023C103.607 9.92614 103.326 10.0341 102.997 10.0341ZM109.461 20.1705C108.609 20.1705 107.871 19.983 107.246 19.608C106.621 19.233 106.136 18.7083 105.791 18.0341C105.45 17.3598 105.28 16.572 105.28 15.6705C105.28 14.7689 105.45 13.9792 105.791 13.3011C106.136 12.6231 106.621 12.0966 107.246 11.7216C107.871 11.3466 108.609 11.1591 109.461 11.1591C110.314 11.1591 111.052 11.3466 111.677 11.7216C112.302 12.0966 112.785 12.6231 113.126 13.3011C113.471 13.9792 113.643 14.7689 113.643 15.6705C113.643 16.572 113.471 17.3598 113.126 18.0341C112.785 18.7083 112.302 19.233 111.677 19.608C111.052 19.983 110.314 20.1705 109.461 20.1705ZM109.473 18.5227C109.935 18.5227 110.321 18.3958 110.632 18.142C110.943 17.8845 111.174 17.5398 111.325 17.108C111.48 16.6761 111.558 16.1951 111.558 15.6648C111.558 15.1307 111.48 14.6477 111.325 14.2159C111.174 13.7803 110.943 13.4337 110.632 13.1761C110.321 12.9186 109.935 12.7898 109.473 12.7898C108.999 12.7898 108.605 12.9186 108.291 13.1761C107.98 13.4337 107.747 13.7803 107.592 14.2159C107.441 14.6477 107.365 15.1307 107.365 15.6648C107.365 16.1951 107.441 16.6761 107.592 17.108C107.747 17.5398 107.98 17.8845 108.291 18.142C108.605 18.3958 108.999 18.5227 109.473 18.5227ZM116.966 14.8864V20H114.909V11.2727H116.875V12.7557H116.977C117.178 12.267 117.498 11.8788 117.937 11.5909C118.381 11.303 118.928 11.1591 119.579 11.1591C120.182 11.1591 120.706 11.2879 121.153 11.5455C121.604 11.803 121.953 12.1761 122.199 12.6648C122.449 13.1534 122.572 13.7462 122.568 14.4432V20H120.511V14.7614C120.511 14.178 120.36 13.7216 120.057 13.392C119.757 13.0625 119.343 12.8977 118.812 12.8977C118.453 12.8977 118.132 12.9773 117.852 13.1364C117.576 13.2917 117.358 13.517 117.199 13.8125C117.043 14.108 116.966 14.4659 116.966 14.8864Z" fill="#1C1D1F"/>
</svg>
